<svg width="51" height="51" viewBox="0 0 51 51" fill="none" xmlns="http://www.w3.org/2000/svg">
<g clip-path="url(#clip0_157_113)">
<path fill-rule="evenodd" clip-rule="evenodd" d="M32.889 5.13442L25.114 36.8567L21.9781 36.0729L29.9727 4.24219L30.6758 4.42969L31.4062 4.65625L32.889 5.13442Z" fill="black"/>
<path d="M10.7265 45.6932C6.61042 42.2528 2.03633 36.3599 0.754425 31.1305C-0.527481 25.901 -0.111116 20.3955 1.94243 15.4218C3.99597 10.4481 7.57858 6.26806 12.1646 3.49498C16.7506 0.721896 22.7707 -0.372247 28.0958 0.139655L27.067 3.77562C22.5406 3.3405 17.9949 4.37759 14.0968 6.73471C10.1987 9.09183 7.15345 12.6449 5.40794 16.8725C3.66243 21.1002 3.30852 25.7798 4.39814 30.2249C5.48776 34.6699 8.21101 38.7051 11.7097 41.6294L10.7265 45.6932Z" fill="black"/>
<path d="M30.8326 0.58284C34.3086 1.41494 37.5673 2.987 40.3894 5.19324C43.2116 7.39948 45.5317 10.1887 47.1938 13.3733C48.8559 16.558 49.8213 20.0641 50.0252 23.6558C50.229 27.2475 49.6665 30.8416 48.3756 34.1961C47.0847 37.5506 45.0952 40.5879 42.541 43.1035C39.9869 45.6191 36.9273 47.5547 33.5681 48.7802C30.2089 50.0056 26.628 50.4924 23.0663 50.2078C19.5046 49.9233 16.0448 48.8739 12.9196 47.1304L13.8555 43.4143C16.512 44.8963 20.3358 46.1987 23.3632 46.4406C26.3906 46.6825 29.4344 46.2687 32.2897 45.2271C35.145 44.1855 37.7457 42.5402 39.9167 40.402C42.0877 38.2637 43.7788 35.682 44.8761 32.8307C45.9734 29.9793 46.4515 26.9244 46.2782 23.8714C46.1049 20.8184 45.2843 17.8383 43.8715 15.1313C42.4588 12.4244 40.4866 10.0535 38.0878 8.17823C35.689 6.30293 32.9191 4.96669 29.9645 4.2594L30.8326 0.58284Z" fill="black"/>
<path fill-rule="evenodd" clip-rule="evenodd" d="M9.02154 39.0293L16.1406 10.2388L19.2784 11.0147L11.7109 41.6328L11.3672 41.3516L11.0117 41.0469L10.3484 40.4168L9.02154 39.0293Z" fill="black"/>
<path fill-rule="evenodd" clip-rule="evenodd" d="M16.1743 34.639L21.9095 11.6876L25.0455 12.4712L19.3103 35.4227L16.1743 34.639Z" fill="black"/>
<path fill-rule="evenodd" clip-rule="evenodd" d="M36.7808 15.4598L31.0456 38.4113L27.9096 37.6276L33.6448 14.6762L36.7808 15.4598Z" fill="black"/>
<path fill-rule="evenodd" clip-rule="evenodd" d="M21.4297 13.6133L18.7969 12.9413L19.0039 12.1133L19.2698 11.0156L21.9106 11.6846L21.4297 13.6133Z" fill="black"/>
<path fill-rule="evenodd" clip-rule="evenodd" d="M16.1758 34.6367L13.5981 33.9867L13.7982 33.1778L14.0747 32.0668L16.6564 32.7227L16.1758 34.6367Z" fill="black"/>
<path fill-rule="evenodd" clip-rule="evenodd" d="M30.798 26.0784L27.9338 25.3516L28.1447 24.4922L28.2734 23.9648L28.4102 23.4063L31.281 24.1633L30.798 26.0784Z" fill="black"/>
</g>
<defs>
<clipPath id="clip0_157_113">
<rect width="50.1021" height="50.3445" fill="white"/>
</clipPath>
</defs>
</svg>
